<?xml version="1.0" encoding="utf-8"?>
<!-- Generator: Adobe Illustrator 22.0.1, SVG Export Plug-In . SVG Version: 6.00 Build 0)  -->
<svg version="1.1" id="Layer_1" xmlns="http://www.w3.org/2000/svg" xmlns:xlink="http://www.w3.org/1999/xlink" x="0px" y="0px"
	 viewBox="0 0 452.8 82.3" style="enable-background:new 0 0 452.8 82.3;" xml:space="preserve">
<style type="text/css">
	.st0{fill:#A90533;}
</style>
<path class="st0" d="M427.2,55.2c0.4,1.3-4.3,1.7-6.4,1.7c-7.8,0-24.7-0.4-42.9,11.1c-18.7,11.8-24.1,12.3-25.2,12.5
	c-0.2,0-1.1,0.1-1.1,1c0,0.7,1,0.8,1.4,0.8c1.3,0,7.4-0.5,24.3-8c11-4.9,18.3-4.5,19.9-4.5c5.6,0,12.2,1.6,23.3,6.5
	c14.8,6.5,28.6,6.1,30.8,6.1c0.4,0,1.4,0,1.4-0.8c0-0.8-0.8-1-1.1-1c-5.3-1.1-25.5-3.9-25.5-10.2c0-6.3,11.7-5.9,12.2-5.9
	c0.4,0,2.7-0.2,2.2-2.7c-0.3-1.4-1.5-2.7-2.7-3.6c0,0-11.8-10.1-26.2-9.5c-13.5,0.6,1,4.1,6.5,4.7C426.8,54.2,427.1,54.8,427.2,55.2
	"/>
<path class="st0" d="M345.2,58.8c-2.1,4.1-5.5,7.3-10.6,7.3h0c-5.1,0-8.5-3.3-10.6-7.3c-2-4-2.5-8.8-2.5-11.2
	c0-2.4,0.5-7.2,2.5-11.2c2.1-4.1,5.5-7.3,10.6-7.3h0c5.1,0,8.5,3.2,10.6,7.3c2,4,2.5,8.8,2.5,11.2C347.8,50,347.3,54.8,345.2,58.8
	 M351.9,30.8c-4.3-4.8-10.9-7.1-17.3-7.1c-6.4,0-13,2.3-17.3,7.1c-3.3,3.7-6,9.3-6,16.8c0,7.5,2.7,13.1,6,16.7
	c4.3,4.8,10.9,7.1,17.3,7.1c6.4,0,13-2.3,17.3-7.1c3.3-3.7,6-9.3,6-16.8C357.9,40.1,355.2,34.5,351.9,30.8 M299.8,58.3
	c0,7.8,6.3,7.8,7.8,7.8c3,0,7.2-0.6,7.2-0.6l0.6,4.8c0,0-4.2,1.2-9.6,1.2c-4.5,0-10.1-1.8-13.1-5.4c-3.6-4.2-3.6-10.2-3.6-18.5V11.7
	c6,0,10.8,1.2,10.8,4.8V58.3z M241,70.3c0,0-4.6,1.2-9.6,1.2c-5,0-10.1-1.8-13.1-5.4c-3.6-4.2-3.6-10.2-3.6-18.5V11.7
	c6,0,10.8,1.2,10.8,4.8v7.2h9.7l0.7,5.4h-10.4v29.3c0,7.8,6.3,7.8,7.8,7.8c3,0,7.2-0.6,7.2-0.6L241,70.3z M195.4,23.1
	c6,0,10.8,1.2,10.8,4.8v43.6c-6,0-10.8-1.2-10.8-4.8V23.1z M271,51.8c0,5.4-1.2,14.3-10.8,14.3c-5.2,0-7.8-3.6-7.8-7.8
	c0-10,9.7-10.8,13.8-10.8c4.1,0,4.7,0,4.7,0V51.8z M254.7,23.7h-7.6l0.7,5.4h6c13.7,0,17.3,4.4,17.3,10.7v1.8h-7.8
	c-3.6,0-21.5-0.2-21.5,15.5c0,0-0.7,14.3,16.1,14.3c10.7,0,13.1-5.7,13.1-5.7l0.1-0.3c0,0,0,0.5,0,0.7c-0.1,3.4,4.4,5.4,10.8,5.4
	c0,0,0-17.2,0-25.1C281.8,40.6,283,23.7,254.7,23.7"/>
<path class="st0" d="M175.3,58.3c0,7.8,6.3,7.8,7.8,7.8c3,0,7.2-0.6,7.2-0.6l0.6,4.8c0,0-4.2,1.2-9.6,1.2c-4.5,0-10.1-1.8-13.1-5.4
	c-3.6-4.2-3.6-10.2-3.6-18.5V11.7c6,0,10.8,1.2,10.8,4.8V58.3z"/>
<path class="st0" d="M98,60c-2.1,4.1-5.5,7.3-10.6,7.3h0c-5.1,0-8.5-3.3-10.6-7.3c-2-4-2.5-8.8-2.5-11.2c0-2.4,0.5-7.2,2.5-11.2
	c2.1-4.1,5.5-7.3,10.6-7.3h0c5.1,0,8.5,3.2,10.6,7.3c2,4,2.5,8.8,2.5,11.2C100.5,51.2,100.1,56,98,60 M104.7,32
	c-4.3-4.8-10.9-7.1-17.3-7.1c-6.4,0-13,2.3-17.3,7.1c-3.3,3.7-6,9.3-6,16.8c0,7.5,2.7,13.1,6,16.7c4.3,4.8,10.9,7.1,17.3,7.1
	c6.4,0,13-2.3,17.3-7.1c3.3-3.7,6-9.3,6-16.8C110.7,41.3,108,35.7,104.7,32"/>
<path class="st0" d="M146.6,60c-2.1,4.1-5.5,7.3-10.6,7.3h0c-5.1,0-8.5-3.3-10.6-7.3c-2-4-2.5-8.8-2.5-11.2c0-2.4,0.5-7.2,2.5-11.2
	c2.1-4.1,5.5-7.3,10.6-7.3h0c5.1,0,8.5,3.2,10.6,7.3c2,4,2.5,8.8,2.5,11.2C149.1,51.2,148.6,56,146.6,60 M153.3,32
	c-4.3-4.8-10.9-7.1-17.3-7.1c-6.4,0-13,2.3-17.3,7.1c-3.3,3.7-6,9.3-6,16.8c0,7.5,2.7,13.1,6,16.7c4.3,4.8,10.9,7.1,17.3,7.1
	c6.4,0,13-2.3,17.3-7.1c3.3-3.7,6-9.3,6-16.8C159.3,41.3,156.6,35.7,153.3,32"/>
<g>
	<path class="st0" d="M31.1,6v14.8c1.2-0.2,3.1-0.3,5.5-0.3c7.3,0,13.3,2.1,18,6.3c4.7,4.2,7,10.3,7,18.2c0,8.5-2.9,15.3-8.7,20.2
		c-5.8,5-13.1,7.5-21.8,7.5c-4.2,0-7.6-0.5-10.3-1.3l0-71.3C20.8,0,31.1-0.7,31.1,6z M50.9,44.6c0-6.4-1.2-11.1-3.6-14.1
		c-2.4-2.9-6.5-6.4-12.1-6.4c-1.5,0-2.8,0.2-4,0.6v35.4c0,4.3,4.3,7.3,8.2,5.8c0,0,0,0,0.1,0c2.4-1,4.3-2.2,5.8-3.7
		c1.4-1.5,2.6-3.3,3.5-5.3c0.9-2.1,1.5-4.1,1.8-6C50.7,48.9,50.9,46.8,50.9,44.6z"/>
</g>
<path class="st0" d="M5.7,65.1c3.1,0,5.7,2.5,5.7,5.7c0,3.1-2.5,5.7-5.7,5.7c-3.1,0-5.7-2.5-5.7-5.7C0,67.7,2.5,65.1,5.7,65.1"/>
</svg>
